<mxfile host="app.diagrams.net" agent="Mozilla/5.0 (Windows NT 10.0; Win64; x64) AppleWebKit/537.36 (KHTML, like Gecko) Chrome/137.0.0.0 Safari/537.36 Edg/137.0.0.0" version="27.1.4">
  <diagram name="Page-1" id="D2tZH21u2GVLkVlh49OX">
    <mxGraphModel grid="0" page="0" gridSize="10" guides="1" tooltips="1" connect="1" arrows="1" fold="1" pageScale="1" pageWidth="1100" pageHeight="850" math="0" shadow="0">
      <root>
        <mxCell id="0" />
        <mxCell id="1" parent="0" />
        <mxCell id="41Gx84OIKVbbBFS_nk4r-37" value="" style="group" connectable="0" vertex="1" parent="1">
          <mxGeometry x="445" y="56" width="599" height="609" as="geometry" />
        </mxCell>
        <mxCell id="41Gx84OIKVbbBFS_nk4r-34" value="" style="rounded=1;whiteSpace=wrap;html=1;dashed=1;dashPattern=12 12;" vertex="1" parent="41Gx84OIKVbbBFS_nk4r-37">
          <mxGeometry width="599" height="609" as="geometry" />
        </mxCell>
        <mxCell id="41Gx84OIKVbbBFS_nk4r-36" value="Computer&lt;div&gt;(Coordinator)&lt;/div&gt;" style="text;html=1;align=center;verticalAlign=middle;whiteSpace=wrap;rounded=0;fontSize=22;" vertex="1" parent="41Gx84OIKVbbBFS_nk4r-37">
          <mxGeometry x="229.5" y="13" width="140" height="54" as="geometry" />
        </mxCell>
        <mxCell id="41Gx84OIKVbbBFS_nk4r-41" value="Initial Setup&lt;div&gt;&lt;ul&gt;&lt;li&gt;Sets itself up as an AP for the tanks and controllers to connect to&lt;/li&gt;&lt;ul&gt;&lt;li&gt;Maybe track and check that all devices connected to AP before beginning game&lt;/li&gt;&lt;/ul&gt;&lt;li&gt;Sets up TCP connections for all Tanks&lt;/li&gt;&lt;/ul&gt;&lt;div&gt;Run Mode&lt;/div&gt;&lt;/div&gt;&lt;div&gt;&lt;ul&gt;&lt;li&gt;&lt;br&gt;&lt;/li&gt;&lt;/ul&gt;&lt;/div&gt;" style="text;html=1;align=left;verticalAlign=middle;whiteSpace=wrap;rounded=0;" vertex="1" parent="41Gx84OIKVbbBFS_nk4r-37">
          <mxGeometry x="7" y="78" width="586" height="370" as="geometry" />
        </mxCell>
      </root>
    </mxGraphModel>
  </diagram>
</mxfile>
